<svg width="286" height="235" viewBox="0 0 286 235" fill="none" xmlns="http://www.w3.org/2000/svg">
<g clip-path="url(#clip0_2016_2866)">
<path d="M143 175.982L110.655 134.671L143 93.3601L175.346 134.671L143 175.982ZM262.167 79.4258H218.635L197.152 106.885L175.67 79.4258H153.863H132.137H110.331L88.8484 106.885L67.3659 79.4258H23.8336L67.1227 134.671L23.8336 189.917H67.3659L88.8484 162.54L110.331 189.917H132.137H153.863H175.67L197.152 162.54L218.635 189.917H262.167L218.959 134.671L262.167 79.4258Z" fill="#E42313"/>
<path d="M240.441 79.4258L197.152 134.671L153.863 79.4258H175.589L197.071 106.885L218.554 79.4258H240.441ZM132.137 79.4258L88.8484 134.671L132.056 189.835L142.919 175.982L110.574 134.671L142.919 93.3601L132.137 79.4258ZM23.8336 79.4258L67.1227 134.671L23.8336 189.917H45.6403L88.8484 134.753L45.6403 79.4258H23.8336ZM153.944 189.835H175.67L197.152 162.376L218.635 189.753H240.36L197.152 134.589L153.944 189.835Z" fill="#9D1D06"/>
<mask id="mask0_2016_2866" style="mask-type:luminance" maskUnits="userSpaceOnUse" x="110" y="93" width="66" height="83">
<path d="M110.655 134.671L143 175.982L175.345 134.671L143 93.3599L110.655 134.671Z" fill="white"/>
</mask>
<g mask="url(#mask0_2016_2866)">
<path d="M106.764 93.5238L175.264 90.2451L179.236 175.818L110.817 179.097L106.764 93.5238Z" fill="url(#paint0_linear_2016_2866)"/>
</g>
<path d="M159.051 120.491L153.7 123.278L157.592 118.605L159.051 120.491Z" fill="white"/>
<mask id="mask1_2016_2866" style="mask-type:luminance" maskUnits="userSpaceOnUse" x="0" y="0" width="286" height="266">
<path d="M286 0H0V265.08H286V0Z" fill="white"/>
</mask>
<g mask="url(#mask1_2016_2866)">
<path d="M146.648 127.048L144.135 127.868L146.648 125.737L153.944 127.622C154.025 127.704 154.025 127.786 154.106 127.868L146.648 127.048Z" fill="white"/>
</g>
<mask id="mask2_2016_2866" style="mask-type:luminance" maskUnits="userSpaceOnUse" x="0" y="0" width="286" height="266">
<path d="M286 0H0V265.08H286V0Z" fill="white"/>
</mask>
<g mask="url(#mask2_2016_2866)">
<path d="M151.107 132.376L146.081 132.868L146.892 130.982L151.107 132.376Z" fill="white"/>
</g>
<mask id="mask3_2016_2866" style="mask-type:luminance" maskUnits="userSpaceOnUse" x="0" y="0" width="286" height="266">
<path d="M286 0H0V265.08H286V0Z" fill="white"/>
</mask>
<g mask="url(#mask3_2016_2866)">
<path d="M155.16 115.491L153.782 116.72L151.674 117.704L152.485 118.605L151.755 120.081L150.296 118.36L152.323 116.064L155.16 115.491Z" fill="white"/>
</g>
<mask id="mask4_2016_2866" style="mask-type:luminance" maskUnits="userSpaceOnUse" x="0" y="0" width="286" height="266">
<path d="M286 0H0V265.08H286V0Z" fill="white"/>
</mask>
<g mask="url(#mask4_2016_2866)">
<path d="M151.269 110.491L149.161 116.803V107.868L151.269 110.491Z" fill="white"/>
</g>
<mask id="mask5_2016_2866" style="mask-type:luminance" maskUnits="userSpaceOnUse" x="0" y="0" width="286" height="266">
<path d="M286 0H0V265.08H286V0Z" fill="white"/>
</mask>
<g mask="url(#mask5_2016_2866)">
<path d="M120.626 128.605L122.004 129.015L123.625 132.13L126.219 132.704L126.057 133.032L117.87 132.048L120.626 128.605Z" fill="white"/>
</g>
<mask id="mask6_2016_2866" style="mask-type:luminance" maskUnits="userSpaceOnUse" x="0" y="0" width="286" height="266">
<path d="M286 0H0V265.08H286V0Z" fill="white"/>
</mask>
<g mask="url(#mask6_2016_2866)">
<path d="M115.924 134.671H126.219L125.733 135.655H122.166L124.517 136.884L118.356 137.95L115.924 134.671Z" fill="white"/>
</g>
<mask id="mask7_2016_2866" style="mask-type:luminance" maskUnits="userSpaceOnUse" x="0" y="0" width="286" height="266">
<path d="M286 0H0V265.08H286V0Z" fill="white"/>
</mask>
<g mask="url(#mask7_2016_2866)">
<path d="M126.706 141.474L122.572 143.278L120.95 141.228L126.706 138.933L125.409 140.327L123.139 141.474H126.706Z" fill="white"/>
</g>
<mask id="mask8_2016_2866" style="mask-type:luminance" maskUnits="userSpaceOnUse" x="0" y="0" width="286" height="266">
<path d="M286 0H0V265.08H286V0Z" fill="white"/>
</mask>
<g mask="url(#mask8_2016_2866)">
<path d="M127.111 149.097L129.462 139.917L130.516 139.671L129.3 149.507L131.408 147.294L131.57 145.245L133.516 148.606L130.516 153.36L127.111 149.097Z" fill="white"/>
</g>
<mask id="mask9_2016_2866" style="mask-type:luminance" maskUnits="userSpaceOnUse" x="0" y="0" width="286" height="266">
<path d="M286 0H0V265.08H286V0Z" fill="white"/>
</mask>
<g mask="url(#mask9_2016_2866)">
<path d="M127.921 136.966L132.785 127.868L135.866 127.376L127.921 136.966Z" fill="white"/>
</g>
<mask id="mask10_2016_2866" style="mask-type:luminance" maskUnits="userSpaceOnUse" x="0" y="0" width="286" height="266">
<path d="M286 0H0V265.08H286V0Z" fill="white"/>
</mask>
<g mask="url(#mask10_2016_2866)">
<path d="M131.894 154.999L133.677 152.54L137.569 156.966L143.081 158.195V161.474L135.785 159.999L131.894 154.999Z" fill="white"/>
</g>
<mask id="mask11_2016_2866" style="mask-type:luminance" maskUnits="userSpaceOnUse" x="0" y="0" width="286" height="266">
<path d="M286 0H0V265.08H286V0Z" fill="white"/>
</mask>
<g mask="url(#mask11_2016_2866)">
<path d="M143.162 164.753V167.212L141.378 164.835L143.162 161.884L144.864 164.753H143.162Z" fill="white"/>
</g>
<mask id="mask12_2016_2866" style="mask-type:luminance" maskUnits="userSpaceOnUse" x="0" y="0" width="286" height="266">
<path d="M286 0H0V265.08H286V0Z" fill="white"/>
</mask>
<g mask="url(#mask12_2016_2866)">
<path d="M144.54 109.835L143 109.261L143.081 105.737L144.54 109.835Z" fill="white"/>
</g>
<mask id="mask13_2016_2866" style="mask-type:luminance" maskUnits="userSpaceOnUse" x="0" y="0" width="286" height="266">
<path d="M286 0H0V265.08H286V0Z" fill="white"/>
</mask>
<g mask="url(#mask13_2016_2866)">
<path d="M148.431 138.606L147.539 142.622L145.674 137.212L147.134 135.655L148.269 136.31L151.917 134.999L152.889 135.573L149.485 138.688L148.431 138.606Z" fill="white"/>
</g>
<mask id="mask14_2016_2866" style="mask-type:luminance" maskUnits="userSpaceOnUse" x="0" y="0" width="286" height="266">
<path d="M286 0H0V265.08H286V0Z" fill="white"/>
</mask>
<g mask="url(#mask14_2016_2866)">
<path d="M154.836 147.294L154.673 145.327L152.647 148.688L155.403 140.655C155.484 142.048 155.727 146.884 155.808 148.442L154.836 147.294Z" fill="white"/>
</g>
<mask id="mask15_2016_2866" style="mask-type:luminance" maskUnits="userSpaceOnUse" x="0" y="0" width="286" height="266">
<path d="M286 0H0V265.08H286V0Z" fill="white"/>
</mask>
<g mask="url(#mask15_2016_2866)">
<path d="M158.889 124.179L161.889 124.097L160.186 125.081L157.916 125.655L158.484 126.638L157.592 128.032L156.457 125.9L158.889 124.179Z" fill="white"/>
</g>
<mask id="mask16_2016_2866" style="mask-type:luminance" maskUnits="userSpaceOnUse" x="0" y="0" width="286" height="266">
<path d="M286 0H0V265.08H286V0Z" fill="white"/>
</mask>
<g mask="url(#mask16_2016_2866)">
<path d="M164.077 126.966L165.699 128.934L156.538 131.065L164.077 126.966Z" fill="white"/>
</g>
<mask id="mask17_2016_2866" style="mask-type:luminance" maskUnits="userSpaceOnUse" x="0" y="0" width="286" height="266">
<path d="M286 0H0V265.08H286V0Z" fill="white"/>
</mask>
<g mask="url(#mask17_2016_2866)">
<path d="M165.536 140.573L160.834 138.196L166.428 139.343L165.536 140.573Z" fill="white"/>
</g>
<mask id="mask18_2016_2866" style="mask-type:luminance" maskUnits="userSpaceOnUse" x="0" y="0" width="286" height="266">
<path d="M286 0H0V265.08H286V0Z" fill="white"/>
</mask>
<g mask="url(#mask18_2016_2866)">
<path d="M164.968 134.917L162.455 134.097V135.163L160.996 135.901H160.915L161.077 133.523L164.077 133.278L165.374 134.179L169.913 134.425L170.156 134.671L169.913 134.999L164.968 134.917Z" fill="white"/>
</g>
<mask id="mask19_2016_2866" style="mask-type:luminance" maskUnits="userSpaceOnUse" x="0" y="0" width="286" height="266">
<path d="M286 0H0V265.08H286V0Z" fill="white"/>
</mask>
<g mask="url(#mask19_2016_2866)">
<path d="M133.677 119.097L134.65 118.442L132.704 116.966L133.677 119.097Z" fill="white"/>
</g>
<mask id="mask20_2016_2866" style="mask-type:luminance" maskUnits="userSpaceOnUse" x="0" y="0" width="286" height="266">
<path d="M286 0H0V265.08H286V0Z" fill="white"/>
</mask>
<g mask="url(#mask20_2016_2866)">
<path d="M137.325 111.557L136.433 108.442L128.327 118.77L132.704 123.688L136.514 123.196L136.676 119.507L135.866 117.458L137.325 111.557ZM134.082 120.737L132.056 118.442L131.569 115.573L134.326 116.721L135.866 119.425L134.082 120.737Z" fill="white"/>
</g>
<mask id="mask21_2016_2866" style="mask-type:luminance" maskUnits="userSpaceOnUse" x="0" y="0" width="286" height="266">
<path d="M286 0H0V265.08H286V0Z" fill="white"/>
</mask>
<g mask="url(#mask21_2016_2866)">
<path d="M143.081 113.278C143.081 113.196 141.216 109.753 141.216 109.753L143.081 105.655V104.754H140.73L143.081 101.557L143 99.9175L137.406 107.049C137.73 108.278 138.703 113.114 138.703 113.114C139.352 112.54 141.703 112.95 141.784 113.36C138.379 114.016 138.136 118.688 138.136 118.688L138.217 123.852L130.597 125.081L129.381 124.262L128.651 120.491L127.597 119.507L121.193 127.622L128.57 129.999L130.11 127.048C130.596 127.048 140.405 125.573 140.405 125.573L142.351 127.622L140.081 126.803L137.244 127.212L130.921 136.966L134.488 138.278L132.38 140.491L133.515 145.983L139.919 151.556H145.269L144.378 149.425H140.487L140.973 147.95L139.676 146.556L141.297 146.884H144.54L146.404 145.655L139.757 145.573L138.298 145.491L140 144.671L142.027 143.77L143.081 144.425V143.442L141.297 142.048L139.514 142.458L141.054 140.819L143.081 141.393V125.819L141.054 123.852L143.081 124.589L145.513 123.278C145.513 123.278 145.513 119.18 145.513 118.524C145.513 117.868 144.864 115.983 143.162 115.983C141.297 115.983 140.73 117.786 140.649 118.442C140.649 119.098 140.649 123.278 140.649 123.278L139.433 123.77V118.77C139.433 117.868 140.405 114.835 143.081 114.917C146.08 114.835 146.891 117.622 146.972 118.77C146.972 119.917 146.891 123.852 146.891 123.852L148.107 124.016V118.77C148.107 118.688 147.945 113.36 143.081 113.278ZM128.327 128.77L125.57 127.458L124.03 124.999H126.949L129.381 126.721L128.327 128.77ZM140.162 138.196L139.595 135.409L137.892 136.393L135.623 134.753H134.163L136.109 132.294L139.919 132.786L141.459 131.557L141.378 132.95L141.946 134.835L140.162 138.196Z" fill="white"/>
</g>
<mask id="mask22_2016_2866" style="mask-type:luminance" maskUnits="userSpaceOnUse" x="0" y="0" width="286" height="266">
<path d="M286 0H0V265.08H286V0Z" fill="white"/>
</mask>
<g mask="url(#mask22_2016_2866)">
<path d="M127.355 127.376L125.652 125.819L127.922 126.393L127.355 127.376Z" fill="white"/>
</g>
<mask id="mask23_2016_2866" style="mask-type:luminance" maskUnits="userSpaceOnUse" x="0" y="0" width="286" height="266">
<path d="M286 0H0V265.08H286V0Z" fill="white"/>
</mask>
<g mask="url(#mask23_2016_2866)">
<path d="M207.042 213.851L207.366 214.425V214.589H204.367V214.425L204.934 213.851L208.339 205.736H204.61L203.88 206.064L203.799 205.982L204.367 204.015H209.798L210.528 205.572L207.042 213.851ZM164.644 213.687L164.969 214.261V214.343H163.428H162.294V214.261L162.618 213.687V205.982H161.402L162.456 203.933H164.644V213.687ZM194.558 204.015H191.153C190.91 204.015 190.748 204.097 190.586 204.179C190.018 204.425 189.613 204.999 189.613 205.572V208.851C189.613 209.671 190.261 210.408 191.153 210.408H193.666H193.99V212.621C193.99 212.703 193.909 212.785 193.828 212.785H191.964C191.883 212.785 191.801 212.703 191.801 212.621V211.228H189.37V211.392L189.694 211.966V212.949C189.694 213.769 190.342 214.507 191.234 214.507H194.639C195.449 214.507 196.179 213.851 196.179 212.949V205.572C196.017 204.671 195.368 204.015 194.558 204.015ZM193.747 208.687H191.883C191.802 208.687 191.72 208.605 191.72 208.523V205.818C191.72 205.736 191.72 205.736 191.801 205.736L191.883 205.654H193.747C193.828 205.654 193.909 205.736 193.909 205.818V208.523C193.909 208.605 193.909 208.687 193.747 208.687ZM178.993 204.015H175.588C174.778 204.015 174.048 204.671 174.048 205.572V208.113C174.048 208.523 174.21 208.933 174.534 209.261C174.21 209.507 174.048 209.917 174.048 210.408V212.949C174.048 213.769 174.697 214.507 175.588 214.507H178.993C179.804 214.507 180.533 213.851 180.533 212.949V210.408C180.533 209.999 180.371 209.589 180.047 209.261C180.371 209.015 180.533 208.605 180.533 208.113V205.572C180.533 204.671 179.804 204.015 178.993 204.015ZM178.426 210.408V212.54C178.426 212.621 178.345 212.703 178.264 212.703H176.399C176.318 212.703 176.237 212.621 176.237 212.54V210.162C176.237 210.081 176.318 209.999 176.399 209.999H178.264C178.345 209.999 178.426 210.081 178.426 210.162V210.408ZM178.426 208.195C178.426 208.277 178.345 208.359 178.264 208.359H176.399C176.318 208.359 176.237 208.277 176.237 208.195V205.818C176.237 205.736 176.318 205.654 176.399 205.654H178.264C178.345 205.654 178.426 205.736 178.426 205.818V208.195ZM113.168 206.392L113.492 206.966V207.13H111.06V205.9C111.06 205.818 110.979 205.736 110.898 205.736H109.033C108.952 205.736 108.871 205.818 108.871 205.9V207.949C108.871 208.031 108.952 208.113 109.033 208.113H111.627C112.438 208.113 113.168 208.769 113.168 209.671V212.949C113.168 213.769 112.519 214.507 111.627 214.507H108.304C107.493 214.507 106.764 213.851 106.764 212.949V211.474L106.439 210.9V210.736H106.764H108.871V212.54C108.871 212.621 108.952 212.703 109.033 212.703H110.898C110.979 212.703 111.06 212.621 111.06 212.54V209.917C111.06 209.835 110.979 209.753 110.898 209.753H108.304C107.493 209.753 106.764 209.097 106.764 208.195V205.49C106.764 204.671 107.412 203.933 108.304 203.933H111.627C112.438 203.933 113.168 204.589 113.168 205.49V206.392ZM98.0895 212.54L97.522 214.507H91.6042H91.28V214.343L91.6042 213.769V204.671L91.28 204.097V203.933H96.8735L97.441 205.9L97.3599 205.982L96.6303 205.654H93.7119V209.097H95.4954L96.0628 208.769H96.225V211.064H96.0628L95.4954 210.736H93.7119V212.703H97.1978L97.9274 212.376L98.0895 212.54ZM144.297 212.54L143.73 214.507H137.893H137.569V214.343L137.893 213.769V210.736V209.999V204.589L137.569 204.015V203.851H137.893H143.162L143.73 205.818L143.648 205.9L142.919 205.572H140V209.015H141.784L142.351 208.687H142.514V209.015V210.736V211.064H142.351L141.784 210.736H140V212.703H143.486L144.216 212.376L144.297 212.54ZM80.6603 204.015H75.4721V204.179L75.7964 204.753V213.851L75.4721 214.425V214.589H77.9041H80.6603C81.471 214.589 82.2006 213.933 82.2006 213.031V205.654C82.2006 204.671 81.5521 204.015 80.6603 204.015ZM80.255 212.621C80.255 212.703 80.174 212.785 80.0929 212.785H77.9852V205.654H80.0929C80.174 205.654 80.255 205.736 80.255 205.818V212.621ZM127.192 204.015H122.004V204.179L122.328 204.753V213.851L122.004 214.425V214.589H124.436H127.192C128.003 214.589 128.732 213.933 128.732 213.031V205.654C128.732 204.671 128.084 204.015 127.192 204.015ZM126.787 212.621C126.787 212.703 126.706 212.785 126.625 212.785H124.517V205.654H126.625C126.706 205.654 126.787 205.736 126.787 205.818V212.621Z" fill="black"/>
</g>
<mask id="mask24_2016_2866" style="mask-type:luminance" maskUnits="userSpaceOnUse" x="0" y="0" width="286" height="266">
<path d="M286 0H0V265.08H286V0Z" fill="white"/>
</mask>
<g mask="url(#mask24_2016_2866)">
<path d="M220.742 36.5571C222.201 36.5571 223.174 37.5407 223.174 39.0161C223.174 40.4915 222.201 41.4751 220.742 41.4751C219.283 41.4751 218.31 40.5735 218.31 39.0161C218.31 37.5407 219.283 36.5571 220.742 36.5571ZM218.796 39.0161C218.796 40.4096 219.526 41.0653 220.742 41.0653C222.039 41.0653 222.687 40.3276 222.687 39.0161C222.687 37.7866 221.958 36.967 220.742 36.967C219.445 37.0489 218.796 37.7866 218.796 39.0161ZM220.499 40.4096H219.85V37.5407H221.228C221.552 37.5407 221.796 37.7866 221.796 38.0325V38.8522C221.796 39.0981 221.552 39.262 221.39 39.262H221.309L221.877 40.4096H221.147L220.661 39.344V38.6883H221.066V37.9506H220.499V40.4096Z" fill="black"/>
</g>
<mask id="mask25_2016_2866" style="mask-type:luminance" maskUnits="userSpaceOnUse" x="0" y="0" width="286" height="266">
<path d="M286 0H0V265.08H286V0Z" fill="white"/>
</mask>
<g mask="url(#mask25_2016_2866)">
<path d="M122.734 28.3606L122.329 29.672H118.356H118.113V29.5901L118.356 29.1802V27.1311V26.6393V22.9508L118.113 22.541V22.459H118.356H122.004L122.41 23.7705L122.329 23.8524L121.842 23.6065H119.815V25.9835H121.031L121.437 25.7376H121.518V26.3114V26.7212V27.295H121.437L121.031 27.0491H119.815V28.4425H122.166L122.734 28.3606ZM133.597 29.5901V29.672H133.435H131.894L130.678 27.0491H130.03V29.1802L130.273 29.5901V29.672H130.03H128.571H128.327V29.5901L128.571 29.1802V27.0491V25.9016V23.6065V22.9508L128.327 22.541V22.459H128.571H130.03H131.894C132.462 22.459 132.948 22.9508 132.948 23.5246V25.9835C132.948 26.4753 132.624 26.8852 132.137 27.0491L133.191 29.1802L133.597 29.5901ZM131.651 23.7705C131.651 23.6885 131.57 23.6885 131.57 23.6885H130.111V25.9835H131.57C131.651 25.9835 131.651 25.9016 131.651 25.9016V23.7705ZM145.27 22.541H143.73H143.406V22.6229L143.568 23.0328L142.352 27.7048L141.136 23.0328L141.298 22.6229V22.541H141.055H139.514H139.352V22.6229L139.677 23.0328L141.541 29.2622L141.298 29.672V29.754H141.622H141.865H142.433H143H143.243H143.568V29.672L143.325 29.2622L145.108 22.9508L145.432 22.541V22.459H145.27V22.541ZM109.034 23.6885H110.655C110.736 23.6885 110.736 23.7705 110.736 23.7705V24.7541H112.195H112.438V24.6721L112.195 24.2623V23.5246C112.195 22.9508 111.709 22.459 111.141 22.459H108.466C107.899 22.459 107.412 22.9508 107.412 23.5246V28.6065C107.412 29.1802 107.899 29.672 108.466 29.672H111.141C111.709 29.672 112.195 29.1802 112.195 28.6065V27.8688L112.438 27.4589V27.377H112.195H110.736V28.3606C110.736 28.4425 110.655 28.4425 110.655 28.4425H109.034C108.953 28.4425 108.953 28.3606 108.953 28.3606V23.7705C108.872 23.6885 108.953 23.6885 109.034 23.6885ZM166.347 28.2786L165.861 28.5245H163.267L166.428 23.5246L165.942 22.459H162.132L161.726 23.7705L161.808 23.8524L162.294 23.6065H164.645L161.483 28.6065L161.97 29.672H162.456H166.023L166.347 28.2786ZM178.264 29.5901V29.672H178.102H176.562H176.237V29.5901L176.399 29.1802L176.237 28.5245H174.13L173.967 29.1802L174.13 29.5901V29.672H173.805H172.265H172.103V29.5901L172.427 29.1802L174.292 22.9508L174.048 22.541V22.459H174.373H174.697H175.102H175.508H175.832H176.156V22.541L175.913 22.9508L177.777 29.1802L178.264 29.5901ZM175.994 27.377L175.183 24.1803L174.373 27.377H175.994ZM155.647 28.2786L155.16 28.5245H152.809V27.1311H154.025L154.431 27.377H154.512V26.8032V26.3934V25.8196H154.431L154.025 26.0655H152.809V23.6885H154.836L155.322 23.9344L155.403 23.8524L154.998 22.541H151.35H151.107V22.6229L151.35 23.0328V26.7212V27.213V29.2622L151.107 29.672V29.754H151.35H155.322L155.647 28.2786Z" fill="black"/>
</g>
<mask id="mask26_2016_2866" style="mask-type:luminance" maskUnits="userSpaceOnUse" x="0" y="0" width="286" height="266">
<path d="M286 0H0V265.08H286V0Z" fill="white"/>
</mask>
<g mask="url(#mask26_2016_2866)">
<path d="M122.815 41.0651V45.7372H117.87V42.0487C117.87 41.8028 117.627 41.5569 117.383 41.5569H113.168C112.925 41.5569 112.682 41.8028 112.682 42.0487V43.1142L122.247 55.3273C122.572 55.7371 122.734 56.2289 122.734 56.8027V60.9829C122.734 63.278 120.869 65.1632 118.599 65.1632H111.871C109.601 65.1632 107.737 63.278 107.737 60.9829V54.6715H112.682V59.9993C112.682 60.2452 112.925 60.4911 113.168 60.4911H117.383C117.627 60.4911 117.87 60.2452 117.87 59.9993V57.7043L108.304 45.4913C107.98 45.0814 107.818 44.5896 107.818 44.0159V41.0651C107.818 38.77 109.682 36.8848 111.952 36.8848H118.68C120.95 36.8848 122.815 38.77 122.815 41.0651ZM103.602 41.0651V60.901C103.602 63.196 101.738 65.0813 99.4678 65.0813H92.7394C90.4695 65.0813 88.605 63.196 88.605 60.901V41.0651C88.605 38.77 90.4695 36.8848 92.7394 36.8848H99.4678C101.738 36.8848 103.602 38.77 103.602 41.0651ZM98.6572 42.0487C98.6572 41.8028 98.414 41.5569 98.1708 41.5569H94.0364C93.7932 41.5569 93.55 41.8028 93.55 42.0487V59.9993C93.55 60.2452 93.7932 60.4911 94.0364 60.4911H98.2519C98.4951 60.4911 98.7383 60.2452 98.7383 59.9993V42.0487H98.6572ZM84.2275 41.0651V60.901C84.2275 63.196 82.363 65.0813 80.0931 65.0813H69.2303V36.8848H80.0931C82.363 36.8848 84.2275 38.77 84.2275 41.0651ZM79.2825 42.0487C79.2825 41.8028 79.0393 41.5569 78.7961 41.5569H74.0943V60.4911H78.7961C79.0393 60.4911 79.2825 60.2452 79.2825 59.9993V42.0487ZM216.527 45.7372V41.0651C216.527 38.77 214.662 36.8848 212.392 36.8848H205.664C203.394 36.8848 201.53 38.77 201.53 41.0651V44.0159C201.53 44.5077 201.692 45.0814 202.016 45.4913L211.582 57.7043V59.9993C211.582 60.2452 211.339 60.4911 211.095 60.4911H206.88C206.637 60.4911 206.394 60.2452 206.394 59.9993V54.6715H201.449V60.9829C201.449 63.278 203.313 65.1632 205.583 65.1632H212.311C214.581 65.1632 216.446 63.278 216.446 60.9829V56.8027C216.446 56.3109 216.284 55.7371 215.959 55.3273L206.394 43.1142V42.0487C206.394 41.8028 206.637 41.5569 206.88 41.5569H211.095C211.339 41.5569 211.582 41.8028 211.582 42.0487V45.7372H216.527ZM181.344 60.4911H176.724C176.48 60.4911 176.237 60.2452 176.237 59.9993V36.8848H171.292V60.9829C171.292 63.278 173.157 65.1632 175.426 65.1632H179.074L181.344 62.2944V65.1632H186.289V36.8848H181.344V60.4911ZM191.64 65.1632H196.585V36.8848H191.64V65.1632ZM164.726 64.4255L167.077 67.3763H161.483L159.7 65.0813L157.916 62.8682V65.0813H155.727C153.458 65.0813 151.593 63.196 151.593 60.901V41.0651C151.593 38.77 153.458 36.8848 155.727 36.8848H162.456C164.726 36.8848 166.59 38.77 166.59 41.0651V60.901C166.59 62.3764 165.861 63.6878 164.726 64.4255ZM156.538 59.9993C156.538 60.2452 156.781 60.4911 157.025 60.4911H161.24C161.483 60.4911 161.726 60.2452 161.726 59.9993V42.0487C161.726 41.8028 161.483 41.5569 161.24 41.5569H157.025C156.781 41.5569 156.538 41.8028 156.538 42.0487V59.9993ZM133.84 65.1632H147.702V60.4911H138.785V54.5896H145.189V49.9175H138.785V41.5569H147.702V36.8848H133.84V65.1632Z" fill="black"/>
</g>
</g>
<defs>
<linearGradient id="paint0_linear_2016_2866" x1="91.4473" y1="137.167" x2="181.613" y2="132.954" gradientUnits="userSpaceOnUse">
<stop stop-color="#F1AE1F"/>
<stop offset="0.0542766" stop-color="#F1AE1F"/>
<stop offset="0.1503" stop-color="#F9D86B"/>
<stop offset="0.2188" stop-color="#FFF39D"/>
<stop offset="0.2728" stop-color="#FBEB91"/>
<stop offset="0.3696" stop-color="#F0D772"/>
<stop offset="0.498" stop-color="#DEB540"/>
<stop offset="0.6348" stop-color="#C98D03"/>
<stop offset="0.6946" stop-color="#CD9312"/>
<stop offset="0.8088" stop-color="#D9A439"/>
<stop offset="0.8154" stop-color="#DAA53B"/>
<stop offset="0.8615" stop-color="#E2B44F"/>
<stop offset="0.9553" stop-color="#F5DB82"/>
<stop offset="1" stop-color="#FFEF9C"/>
</linearGradient>
<clipPath id="clip0_2016_2866">
<rect width="286" height="235" fill="white"/>
</clipPath>
</defs>
</svg>
